<svg xmlns="http://www.w3.org/2000/svg" viewBox="0 0 64 64" fill="none">
  <defs>
    <linearGradient id="g" x1="12" y1="6" x2="52" y2="58" gradientUnits="userSpaceOnUse">
      <stop stop-color="#6F3BD9"/>
      <stop offset="1" stop-color="#9A6BFF"/>
    </linearGradient>
  </defs>
  <rect x="4" y="4" width="56" height="56" rx="14" fill="#0D0C12"/>
  <rect x="4" y="4" width="56" height="56" rx="14" stroke="url(#g)" stroke-width="2"/>
  <path d="M22 22.5C22 17.81 25.8 14 30.47 14H33.5C38.74 14 43 18.26 43 23.5C43 28.74 38.74 33 33.5 33H29" stroke="url(#g)" stroke-width="5" stroke-linecap="round"/>
  <path d="M34 29C34 32.87 30.87 36 27 36C23.13 36 20 32.87 20 29C20 25.13 23.13 22 27 22C30.87 22 34 25.13 34 29Z" fill="url(#g)"/>
  <circle cx="36" cy="38" r="6" stroke="url(#g)" stroke-width="4"/>
</svg>
